<svg xmlns="http://www.w3.org/2000/svg" version="1.1" xmlns:xlink="http://www.w3.org/1999/xlink" width="200" height="200"><svg xmlns="http://www.w3.org/2000/svg" version="1.1" xmlns:xlink="http://www.w3.org/1999/xlink" viewBox="0 0 200 200"><rect width="200" height="200" fill="url('#gradient')"></rect><defs><linearGradient id="SvgjsLinearGradient1001" gradientTransform="rotate(354 0.5 0.5)"><stop offset="0%" stop-color="#cbfbff"></stop><stop offset="100%" stop-color="#ffb9f3"></stop></linearGradient></defs><g><g fill="#cbfbff" transform="matrix(2.3934553954031945,0,0,2.3934553954031945,8.009925351307281,112.37506293804672)" stroke="#4b4b4b" stroke-width="0.6"><path d="M8.93-6.52L8.93-4.96L5.88-4.96Q5.93-3.67 6.58-3.06Q7.23-2.44 8.72-2.44L8.72-2.44Q9.69-2.44 10.44-2.73L10.44-2.73L10.86-0.11Q9.56 0.19 8.29 0.19L8.29 0.19Q5.65 0.19 4.09-1.18Q2.52-2.55 2.44-4.96L2.44-4.96L0.83-4.96L0.83-6.52L2.44-6.52L2.44-7.71L0.83-7.71L0.83-9.27L2.47-9.27Q2.66-11.69 4.29-13.05Q5.92-14.40 8.59-14.40L8.59-14.40Q9.63-14.40 10.86-14.10L10.86-14.10L10.44-11.46Q9.68-11.77 8.81-11.77L8.81-11.77Q7.46-11.77 6.75-11.16Q6.04-10.55 5.91-9.27L5.91-9.27L8.93-9.27L8.93-7.71L5.88-7.71L5.88-6.52L8.93-6.52ZM15.30-10.57L16.79-7.66L18.32-10.57L21.74-10.57L18.96-5.42L21.88 0L18.44 0L16.78-3.13L15.15 0L11.69 0L14.62-5.42L11.85-10.57L15.30-10.57ZM32.61-5.36L32.61-5.21Q32.61-2.74 31.50-1.27Q30.39 0.20 28.51 0.20L28.51 0.20Q27.05 0.20 26.11-0.87L26.11-0.87L26.11 4.06L22.82 4.06L22.82-10.57L25.90-10.57L26.00-9.59Q26.94-10.76 28.49-10.76L28.49-10.76Q30.44-10.76 31.52-9.32Q32.61-7.88 32.61-5.36L32.61-5.36ZM29.32-5.06L29.32-5.41Q29.32-8.22 27.68-8.22L27.68-8.22Q26.50-8.22 26.11-7.38L26.11-7.38L26.11-3.22Q26.54-2.34 27.70-2.34L27.70-2.34Q29.27-2.34 29.32-5.06L29.32-5.06ZM39.17 0.20L39.17 0.20Q36.74 0.20 35.23-1.25Q33.73-2.71 33.73-5.03L33.73-5.03L33.73-5.30Q33.73-6.92 34.33-8.16Q34.93-9.40 36.08-10.08Q37.24-10.76 38.82-10.76L38.82-10.76Q41.04-10.76 42.33-9.38Q43.62-8.00 43.62-5.53L43.62-5.53L43.62-4.25L37.08-4.25Q37.26-3.36 37.85-2.85Q38.45-2.34 39.39-2.34L39.39-2.34Q40.96-2.34 41.84-3.44L41.84-3.44L43.34-1.66Q42.72-0.81 41.60-0.31Q40.47 0.20 39.17 0.20ZM38.80-8.22L38.80-8.22Q37.35-8.22 37.08-6.31L37.08-6.31L40.40-6.31L40.40-6.56Q40.42-7.35 40-7.79Q39.58-8.22 38.80-8.22ZM44.88-10.57L47.97-10.57L48.08-9.33Q49.17-10.76 51.09-10.76L51.09-10.76Q52.74-10.76 53.56-9.78Q54.38-8.79 54.40-6.81L54.40-6.81L54.40 0L51.10 0L51.10-6.67Q51.10-7.47 50.78-7.85Q50.46-8.22 49.61-8.22L49.61-8.22Q48.64-8.22 48.17-7.46L48.17-7.46L48.17 0L44.88 0L44.88-10.57ZM61.76-2.97L61.76-2.97Q61.76-3.39 61.32-3.64Q60.88-3.90 59.65-4.17Q58.42-4.44 57.62-4.89Q56.82-5.33 56.40-5.97Q55.98-6.60 55.98-7.42L55.98-7.42Q55.98-8.88 57.18-9.82Q58.38-10.76 60.32-10.76L60.32-10.76Q62.41-10.76 63.68-9.81Q64.95-8.87 64.95-7.32L64.95-7.32L61.65-7.32Q61.65-8.59 60.31-8.59L60.31-8.59Q59.79-8.59 59.44-8.31Q59.09-8.02 59.09-7.59L59.09-7.59Q59.09-7.15 59.52-6.88Q59.95-6.60 60.89-6.43Q61.84-6.25 62.55-6.01L62.55-6.01Q64.93-5.19 64.93-3.07L64.93-3.07Q64.93-1.62 63.65-0.71Q62.36 0.20 60.32 0.20L60.32 0.20Q58.96 0.20 57.90-0.29Q56.84-0.78 56.24-1.62Q55.64-2.46 55.64-3.39L55.64-3.39L58.72-3.39Q58.74-2.66 59.21-2.32Q59.68-1.98 60.41-1.98L60.41-1.98Q61.08-1.98 61.42-2.26Q61.76-2.53 61.76-2.97ZM71.58 0.20L71.58 0.20Q69.15 0.20 67.65-1.25Q66.14-2.71 66.14-5.03L66.14-5.03L66.14-5.30Q66.14-6.92 66.74-8.16Q67.34-9.40 68.50-10.08Q69.65-10.76 71.23-10.76L71.23-10.76Q73.46-10.76 74.75-9.38Q76.04-8.00 76.04-5.53L76.04-5.53L76.04-4.25L69.49-4.25Q69.67-3.36 70.26-2.85Q70.86-2.34 71.81-2.34L71.81-2.34Q73.37-2.34 74.25-3.44L74.25-3.44L75.75-1.66Q75.14-0.81 74.01-0.31Q72.88 0.20 71.58 0.20ZM71.21-8.22L71.21-8.22Q69.77-8.22 69.49-6.31L69.49-6.31L72.81-6.31L72.81-6.56Q72.83-7.35 72.41-7.79Q71.99-8.22 71.21-8.22Z"></path></g></g></svg><style>@media (prefers-color-scheme: light) { :root { filter: none; } }
@media (prefers-color-scheme: dark) { :root { filter: none; } }
</style></svg>